<svg width="155" height="16" viewBox="0 0 155 16" fill="none" xmlns="http://www.w3.org/2000/svg">
<g clip-path="url(#clip0_2111_2461)">
<path d="M80.9313 5.8999H85.9563C86.5156 5.8999 87.0521 6.12209 87.4476 6.51761C87.8431 6.91312 88.0653 7.44957 88.0653 8.00891C88.0653 8.56825 87.8431 9.10467 87.4476 9.50018C87.0521 9.8957 86.5156 10.1179 85.9563 10.1179H80.9313C80.7802 10.1174 80.6353 10.057 80.5285 9.95001C80.4217 9.84301 80.3616 9.69809 80.3613 9.54691V6.46991C80.3619 6.3189 80.422 6.17423 80.5288 6.06744C80.6356 5.96066 80.7803 5.90043 80.9313 5.8999ZM85.9403 8.6879C86.0746 8.6879 86.2059 8.6481 86.3176 8.57349C86.4292 8.49888 86.5162 8.39281 86.5676 8.26874C86.619 8.14467 86.6325 8.00815 86.6063 7.87643C86.5801 7.74472 86.5154 7.62374 86.4204 7.52878C86.3255 7.43382 86.2045 7.36916 86.0728 7.34296C85.941 7.31676 85.8046 7.3302 85.6805 7.38159C85.5564 7.43298 85.4503 7.52002 85.3757 7.63168C85.3011 7.74334 85.2613 7.87462 85.2613 8.00891C85.2613 8.18899 85.3329 8.36168 85.4602 8.48901C85.5875 8.61635 85.7602 8.6879 85.9403 8.6879Z" fill="#111111"/>
<path d="M20.947 7.30212H20.1879C20.0177 7.30239 19.8546 7.37011 19.7343 7.49045C19.6139 7.61079 19.5462 7.77393 19.546 7.94412V13.9581H2.04596V0.658112C2.0457 0.487924 1.97795 0.324778 1.8576 0.204437C1.73726 0.0840962 1.57412 0.0163778 1.40393 0.0161133H0.645935C0.475747 0.0163778 0.312602 0.0840962 0.192261 0.204437C0.0719197 0.324778 0.00417072 0.487924 0.00390625 0.658112V14.2231C0.00443561 14.6948 0.192061 15.147 0.525574 15.4805C0.859086 15.814 1.3113 16.0016 1.78296 16.0021H19.8099C20.2816 16.0016 20.7338 15.814 21.0673 15.4805C21.4008 15.147 21.5884 14.6948 21.5889 14.2231V7.94611C21.5891 7.86167 21.5725 7.77804 21.5403 7.69998C21.5082 7.62192 21.4609 7.55095 21.4013 7.49115C21.3417 7.43135 21.2709 7.38388 21.1929 7.35144C21.115 7.31901 21.0314 7.30226 20.947 7.30212Z" fill="#111111"/>
<path d="M40.4127 0.0119629H27.3217C27.2374 0.0119629 27.1539 0.028558 27.076 0.0608215C26.9981 0.0930851 26.9274 0.140366 26.8677 0.199982C26.8081 0.259597 26.7608 0.330373 26.7286 0.408264C26.6963 0.486155 26.6797 0.569653 26.6797 0.653961V1.41196C26.68 1.58214 26.7477 1.74529 26.868 1.86563C26.9884 1.98597 27.1515 2.05369 27.3217 2.05396H40.2857C41.0801 2.03336 41.8705 2.17204 42.6104 2.46179C43.3503 2.75155 44.0246 3.18651 44.5938 3.74106C45.1629 4.2956 45.6152 4.9585 45.924 5.69064C46.2328 6.42278 46.392 7.20935 46.392 8.00397C46.392 8.79858 46.2328 9.58515 45.924 10.3173C45.6152 11.0494 45.1629 11.7123 44.5938 12.2668C44.0246 12.8214 43.3503 13.2564 42.6104 13.5461C41.8705 13.8359 41.0801 13.9745 40.2857 13.9539H28.7287V7.93896C28.7284 7.76878 28.6607 7.60563 28.5403 7.48529C28.42 7.36495 28.2569 7.29723 28.0867 7.29697H27.3287C27.1585 7.29723 26.9953 7.36495 26.875 7.48529C26.7547 7.60563 26.687 7.76878 26.6867 7.93896V14.2169C26.6872 14.6886 26.8748 15.1408 27.2083 15.4743C27.5418 15.8078 27.994 15.9954 28.4657 15.996H40.4077C42.4935 15.9936 44.4932 15.164 45.9682 13.6892C47.4432 12.2144 48.273 10.2148 48.2757 8.12897V7.87595C48.2725 5.79143 47.4431 3.79319 45.9692 2.31912C44.4954 0.845052 42.4972 0.0154011 40.4127 0.0119629Z" fill="#111111"/>
<path d="M73.1821 0H55.1501C54.6783 0.000529775 54.2259 0.188275 53.8924 0.522003C53.5589 0.855732 53.3714 1.30817 53.3711 1.78V15.358C53.3714 15.5282 53.4391 15.6913 53.5594 15.8117C53.6798 15.932 53.8429 15.9997 54.0131 16H54.7711C54.9411 15.9995 55.104 15.9317 55.2241 15.8113C55.3442 15.691 55.4118 15.528 55.4121 15.358V9.332H72.9181V15.355C72.9184 15.5252 72.9861 15.6883 73.1064 15.8087C73.2268 15.929 73.3899 15.9967 73.5601 15.997H74.3181C74.4883 15.9967 74.6514 15.929 74.7718 15.8087C74.8921 15.6883 74.9598 15.5252 74.9601 15.355V9.07001C74.9596 8.59835 74.772 8.14616 74.4385 7.81265C74.105 7.47914 73.6527 7.29154 73.1811 7.29102H55.4131V5.99802H73.1821C73.6538 5.99749 74.1059 5.80989 74.4395 5.47638C74.773 5.14287 74.9606 4.69065 74.9611 4.21899V1.77802C74.9601 1.30661 74.7723 0.854815 74.4388 0.521576C74.1054 0.188336 73.6535 0.000792424 73.1821 0ZM72.9191 3.95801H55.4131V2.04199H72.9201L72.9191 3.95801Z" fill="#111111"/>
<path d="M126.541 0.0119629H108.511C108.04 0.0124922 107.588 0.200087 107.254 0.5336C106.921 0.867112 106.733 1.3193 106.732 1.79095V4.60394C106.733 4.77413 106.8 4.93728 106.921 5.05762C107.041 5.17796 107.204 5.24571 107.374 5.24597H108.132C108.303 5.24571 108.466 5.17796 108.586 5.05762C108.706 4.93728 108.774 4.77413 108.774 4.60394V2.05396H126.274V7.29895H108.511C108.04 7.29948 107.588 7.48707 107.254 7.82059C106.921 8.1541 106.733 8.60628 106.732 9.07794V14.22C106.733 14.6916 106.921 15.1438 107.254 15.4773C107.588 15.8108 108.04 15.9984 108.511 15.999H126.541C127.013 15.9984 127.465 15.8108 127.799 15.4773C128.132 15.1438 128.32 14.6916 128.32 14.22V1.79196C128.32 1.32013 128.133 0.867695 127.799 0.533966C127.466 0.200237 127.013 0.0124927 126.541 0.0119629ZM126.278 9.34195V13.9579H108.778V9.34195H126.278Z" fill="#111111"/>
<path d="M145.215 0H143.193C140.6 0.00449532 138.114 1.03679 136.28 2.8707C134.446 4.70461 133.414 7.19059 133.41 9.784V15.358C133.41 15.5282 133.478 15.6913 133.599 15.8117C133.719 15.932 133.882 15.9997 134.052 16H134.81C134.98 15.9997 135.144 15.932 135.264 15.8117C135.384 15.6913 135.452 15.5282 135.452 15.358V9.91C135.455 7.84768 136.266 5.86862 137.712 4.39786C139.157 2.9271 141.122 2.08197 143.184 2.04401V15.358C143.184 15.5282 143.252 15.6913 143.372 15.8117C143.493 15.932 143.656 15.9997 143.826 16H144.584C144.754 15.9997 144.918 15.932 145.038 15.8117C145.158 15.6913 145.226 15.5282 145.226 15.358V2.04401C147.288 2.08223 149.253 2.92746 150.698 4.39819C152.144 5.86892 152.955 7.84785 152.957 9.91V15.358C152.957 15.5281 153.025 15.6912 153.145 15.8116C153.265 15.932 153.428 15.9997 153.598 16H154.357C154.527 15.9997 154.691 15.932 154.811 15.8117C154.931 15.6913 154.999 15.5282 154.999 15.358V9.78302C154.996 7.18913 153.965 4.70232 152.13 2.86826C150.296 1.03419 147.809 0.00264682 145.215 0Z" fill="#111111"/>
<path d="M93.3331 0.0149536H81.0121C80.8421 0.0154822 80.6792 0.0833313 80.5591 0.203644C80.439 0.323956 80.3714 0.486937 80.3711 0.656952V1.41495C80.3711 1.58504 80.4386 1.74819 80.5588 1.86856C80.679 1.98893 80.842 2.05668 81.0121 2.05695H93.1891C94.006 2.06064 94.8141 2.22594 95.5668 2.54327C96.3196 2.86061 97.0021 3.32371 97.5751 3.90594C98.1257 4.45646 98.5604 5.1118 98.8535 5.83319C99.1465 6.55458 99.2918 7.3274 99.2811 8.10596C99.2472 9.66342 98.6065 11.1461 97.4955 12.2381C96.3844 13.3301 94.8909 13.945 93.3331 13.952H81.0121C80.842 13.9522 80.679 14.02 80.5588 14.1404C80.4386 14.2607 80.3711 14.4239 80.3711 14.594V15.353C80.3714 15.5229 80.439 15.6858 80.5591 15.8059C80.6793 15.9261 80.8422 15.9937 81.0121 15.994H93.1721C95.267 16.0007 97.2837 15.1986 98.8019 13.755C100.32 12.3114 101.222 10.3376 101.321 8.24496C101.352 7.17604 101.169 6.11173 100.781 5.11493C100.394 4.11813 99.8111 3.20907 99.0665 2.44153C98.3219 1.67398 97.4309 1.06351 96.4464 0.64621C95.4618 0.228906 94.4035 0.013247 93.3341 0.0119629L93.3331 0.0149536Z" fill="#111111"/>
</g>
<defs>
<clipPath id="clip0_2111_2461">
<rect width="155" height="16" fill="white"/>
</clipPath>
</defs>
</svg>
