<svg width="18" height="20" viewBox="0 0 18 20" fill="none" xmlns="http://www.w3.org/2000/svg">
<path d="M14.5401 6.81063C16.1748 6.81063 17.5001 5.48539 17.5001 3.85062C17.5001 2.21586 16.1748 0.890625 14.5401 0.890625C12.9053 0.890625 11.5801 2.21586 11.5801 3.85062C11.5801 5.48539 12.9053 6.81063 14.5401 6.81063ZM3.46 6.81063C5.09476 6.81063 6.42 5.48539 6.42 3.85062C6.42 2.21586 5.09476 0.890625 3.46 0.890625C1.82524 0.890625 0.5 2.21586 0.5 3.85062C0.5 5.48539 1.82524 6.81063 3.46 6.81063ZM14.5401 19.1114C16.1748 19.1114 17.5001 17.7862 17.5001 16.1514C17.5001 14.5166 16.1748 13.1914 14.5401 13.1914C12.9053 13.1914 11.5801 14.5166 11.5801 16.1514C11.5801 17.7862 12.9053 19.1114 14.5401 19.1114ZM3.46 19.1114C5.09476 19.1114 6.42 17.7862 6.42 16.1514C6.42 14.5166 5.09476 13.1914 3.46 13.1914C1.82524 13.1914 0.5 14.5166 0.5 16.1514C0.5 17.7862 1.82524 19.1114 3.46 19.1114Z" fill="#292D32"/>
</svg>
