<svg width="24" height="24" viewBox="0 0 24 24" fill="none" xmlns="http://www.w3.org/2000/svg">
<g clip-path="url(#clip0_1618_11621)">
<path d="M12.0006 8.5L14.1166 13.588L19.6086 14.028L15.4246 17.612L16.7026 22.972L12.0006 20.1L7.29858 22.972L8.57658 17.612L4.39258 14.028L9.88458 13.588L12.0006 8.5ZM12.0006 13.707L11.2616 15.484L9.34558 15.637L10.8056 16.888L10.3586 18.759L12.0006 17.756L13.6416 18.759L13.1956 16.889L14.6546 15.637L12.7396 15.484L12.0006 13.707ZM8.00058 2V11H6.00058V2H8.00058ZM18.0006 2V11H16.0006V2H18.0006ZM13.0006 2V7H11.0006V2H13.0006Z" fill="white"/>
</g>
<defs>
<clipPath id="clip0_1618_11621">
<rect width="24" height="24" fill="white"/>
</clipPath>
</defs>
</svg>
